<?xml version="1.0" encoding="utf-8"?>
<!-- Generator: Adobe Illustrator 22.1.0, SVG Export Plug-In . SVG Version: 6.00 Build 0)  -->
<svg version="1.1" xmlns="http://www.w3.org/2000/svg" xmlns:xlink="http://www.w3.org/1999/xlink" x="0px" y="0px"
	 viewBox="0 0 1110 448" style="enable-background:new 0 0 1110 448;" xml:space="preserve">
<style type="text/css">
	.st0{fill:#FFFFFF;}
	.st1{fill-rule:evenodd;clip-rule:evenodd;fill:#EE3D23;}
</style>
<g id="Layer_2">
</g>
<g id="Layer_3">
	<g>
		<g>
			<path class="st0" d="M203.1,427.3C203,427.3,203.1,427.3,203.1,427.3L203.1,427.3z"/>
			<path class="st0" d="M349.1,225.6c-9.8-7.9-16.7-18.6-22.6-28.7c-4.2-7.2-8.7-31-8.7-31s8.5-5.5,17.8-13.9
				c8.1-7.4,17.1-20.4,17.1-20.4s-21-2.6-36.2-4.9c-17.6-2.7-28.9-10-28.9-10s2-6.6,1.6-15.4c-0.4-8.8-0.2-14-4.9-28.7
				c-4.7-14.7-14.3-27.5-22.7-34.4c-8.3-6.9-16-8.9-16-8.9s-5,11.1-8.9,17.8c-3.4,6-8.3,13.1-15.6,18.5c-7.5,5.6-17.3,7.8-18.1,7.9
				c-0.8-0.2-10.6-2.4-18.1-7.9c-7.3-5.4-12.2-12.6-15.6-18.5c-3.8-6.7-8.9-17.8-8.9-17.8s-7.6,2-16,8.9c-8.3,6.9-18,19.7-22.7,34.4
				c-4.7,14.7-4.6,19.9-4.9,28.7c-0.4,8.8,1.6,15.4,1.6,15.4s-11.3,7.3-28.9,10c-15.2,2.4-36.2,4.9-36.2,4.9s9,13,17.1,20.4
				c9.2,8.4,17.8,13.9,17.8,13.9s-4.6,23.8-8.7,31c-5.8,10-12.8,20.8-22.6,28.7c-8.2,6.6-25.9,19.4-25.9,19.4s17.8,29.9,27.2,42.9
				c6.8,9.5,32.2,41.2,45.3,55.1c13,13.9,36.4,34.9,49.1,46c12.3,10.7,48,36.7,50.3,38.4l0.1,0l0.1,0c2.3-1.7,38-27.7,50.3-38.4
				c12.7-11.1,36.1-32.1,49.1-46c13-13.9,38.5-45.6,45.3-55.1c9.3-13,27.2-42.9,27.2-42.9S357.3,232.2,349.1,225.6z M81.4,140.8
				c0,0,19.9-1.5,30.9-4.7c11.1-3.2,20-9.2,20-9.2s9.6,15,19.7,25c9.4,9.3,20.2,16,20.2,16s-17.5-19.7-22.5-27.5
				c-5.2-8.1-7.8-13.8-10.5-20.6c-2.7-6.8-4.6-14.2-5.1-19.5c-0.5-5.3-0.2-10.6,1.2-17.3c1.4-6.7,4.2-14.3,8.3-20.7
				c4.1-6.3,7.9-8.3,7.9-8.3s3.2,5.8,6.7,10c4.4,5.2,10,10,10,10s-4.3,5.5-5.9,9.5c-1.5,4-3.3,10.3-2.4,17.9
				c0.9,7.5,3.3,13.9,3.3,13.9s5.9-2.1,10.7-5.3c4.8-3.2,6.6-4.1,14.3-10.3c7.8-6.2,14.7-12.3,14.7-12.3s6.9,6.1,14.7,12.3
				c7.8,6.2,9.5,7.2,14.3,10.3c4.8,3.2,10.7,5.3,10.7,5.3s2.4-6.3,3.3-13.9c0.9-7.5-0.8-13.9-2.4-17.9c-1.5-4-5.9-9.5-5.9-9.5
				s5.6-4.7,10-10c3.5-4.2,6.7-10,6.7-10s3.8,2,7.9,8.3c4.1,6.3,6.9,14,8.3,20.7c1.4,6.7,1.6,12,1.2,17.3
				c-0.5,5.3-2.4,12.7-5.1,19.5c-2.7,6.8-5.3,12.5-10.5,20.6c-4.9,7.8-22.5,27.5-22.5,27.5s10.8-6.7,20.2-16
				c10.2-10.1,19.7-25,19.7-25s8.9,6,20,9.2c11,3.2,30.9,4.7,30.9,4.7s-6.7,5.5-15.4,10c-8.7,4.5-33,13.5-44.2,18
				c-11.2,4.5-18.2,8.3-27.4,14c-9.2,5.6-18.9,13.5-23.9,18.1s-10.9,12.8-10.9,12.8s-6-8.2-10.9-12.8c-4.9-4.6-14.7-12.5-23.9-18.1
				c-9.2-5.6-16.2-9.5-27.4-14c-11.2-4.5-35.5-13.5-44.2-18C88.1,146.3,81.4,140.8,81.4,140.8z M236.1,285.2
				c2.7-3.5,7.3-12.3,7.3-12.3s8.1-2.3,13.5-3.7c5.8-1.5,13-4.8,13-4.8s-8.1,19.9-18.3,34.1c-10.2,14.2-15.6,19.7-23.7,27.2
				c-8.1,7.4-22.3,15.9-22.3,15.9v-97c0,0,4.7-0.1,12.3-1.3c7.6-1.2,15.8-3.3,15.8-3.3s-3.2,7.5-5.1,12.1
				c-1.9,4.6-4.9,11.8-4.9,11.8s4.7-6,7.1-9.5c2.4-3.5,9.6-16.8,9.6-16.8s5.5-2.6,8.2-4.5c2.7-1.9,5.1-4.1,6.2-5.6
				c1.2-1.5,3.5-6.1,4.8-10.5c1.3-4.3,1.3-10.8,1.3-10.8s-2.7,1.3-4.8,2.4c-2.1,1.1-4.3,2.5-4.3,2.5s2.1-5.6,3.2-9.4
				c1.1-3.8,4.6-14.4,4.6-14.4s-4.4,9.1-6,12.2c-1.6,3.1-5.8,10.5-6.6,11.8c-0.8,1.3-3.8,5.2-3.8,5.2s-4.6,3.2-7.3,5.2
				c-2.7,2-6.2,4.6-6.2,4.6v7.4c0,0-6.7,2.6-11.5,3.4c-6.1,1-12.5,1.6-12.5,1.6l-0.1-18.3c0,0,5.9-7.1,11.6-12.1
				c5.7-5,11.4-10.4,20.1-16.3c8.7-5.9,12-7.9,20-11.5c8-3.6,24-9.9,24-9.9s0.2,15-0.5,31.3c-0.7,16.2-1.6,27.7-3.5,37.9
				c-1.9,10.1-3.8,16.5-3.8,16.5s-8.8,3.5-17,6.1c-9.6,3-28.4,6.3-28.4,6.3l-0.7,27C227.2,295.4,233.3,288.8,236.1,285.2z
				 M150.4,222.2c0.7,9.1,2.4,23.7,5.2,32.3c2.8,8.6,5.5,16,12.5,26.1c6.9,10.1,10.8,14.6,10.8,14.6l-0.6-27.2c0,0-3.2-1.3-6.7-2.5
				c-5.3-1.8-8.7-3.4-8.7-3.4s-3.4-8-5.1-16.5c-1.2-6.3-2.5-14.9-2.5-14.9s14.9,7.6,26.8,10.3c11.9,2.7,18.6,3.4,18.6,3.4
				s0,31.3,0,45.8c0,14.6-0.1,51.1-0.1,51.1s-16.3-10.8-25-19.3c-8.7-8.6-18-18.9-28.4-36c-10.5-17-14.6-30.9-16.7-41.1
				c-2.1-10.2-2.4-19.9-3.2-37.6c-0.8-17.8-0.7-36.3-0.7-36.3s11.5,4.1,25.3,10.8c13.8,6.7,21.9,12.5,33,21.6
				c11.2,9.2,15.8,16.7,15.8,16.7l0.4,18.2c0,0-7.2-0.6-12.5-1.8c-5.3-1.2-10.8-3.4-10.8-3.4l-0.7-7.6c0,0-7.1-6.6-13.9-11.6
				c-6.8-5.1-14.1-9.4-14.1-9.4S149.7,213.2,150.4,222.2z M331,285.6c-9.9,13.2-18.7,24-27.9,34.3c-8.9,10-21.2,22.3-21.2,22.3
				s-5.8-8.5-9.4-13.5c-3.7-4.9-11.9-14.1-11.9-14.1s1.6,4.2,3.1,9.6c1.5,5.3,3.1,10.8,3.1,10.8s-14,13.7-21.3,20.1
				c-7.3,6.5-17.5,15.4-17.5,15.4s2.7,2.1,6.9,5.2c4.2,3.1,6.2,4.5,6.2,4.5s-6,5.4-10.9,9.4c-4.9,4-16.6,11.9-16.6,11.9l-10.6-7.2
				l-10.6,7.2c0,0-11.6-7.9-16.6-11.9c-4.9-4-10.9-9.4-10.9-9.4s2-1.4,6.2-4.5c4.2-3.1,6.9-5.2,6.9-5.2s-10.2-8.9-17.5-15.4
				c-7.3-6.5-21.3-20.1-21.3-20.1s1.6-5.5,3.1-10.8c1.5-5.3,3.1-9.6,3.1-9.6s-8.2,9.2-11.9,14.1c-3.7,4.9-9.4,13.5-9.4,13.5
				s-12.2-12.3-21.2-22.3c-9.2-10.3-18-21.2-27.9-34.3c-9.9-13.2-24.5-35.3-24.5-35.3s20.9-14.6,29.9-25.2
				c8.9-10.6,12.9-19.3,17.6-33.6c4.7-14.3,4.6-28.9,4.6-28.9s4.2,1.4,9.1,3.1c4.9,1.7,7.4,2.7,7.4,2.7s-0.5,9.2-0.1,20
				c0.4,10.8,0.6,31.7,2.2,47.3c1.6,15.5,4.9,24.8,10.3,37.1c5.4,12.3,19.5,35.1,37.6,53.3c18.1,18.1,33.5,24.3,33.5,24.3
				s15.7-6.2,33.8-24.3c18.1-18.1,32.2-40.9,37.6-53.3c5.4-12.3,8.7-21.6,10.3-37.1c1.6-15.5,1.9-36.4,2.2-47.3
				c0.4-10.8-0.1-20-0.1-20s2.5-1,7.4-2.7c4.9-1.7,9.1-3.1,9.1-3.1s-0.1,14.6,4.6,28.9c4.7,14.3,8.7,23,17.6,33.6
				c8.9,10.6,29.9,25.2,29.9,25.2S340.9,272.4,331,285.6z"/>
		</g>
		<path class="st1" d="M247.6,216.9c0.4,0.2,1,4.7-1.2,6.3c-2.8,2-5.7,0.7-6.6-0.9c-3,2.2-5.2,3.8-5.2,3.8v8.7c0,0,6.7-1.4,12.9-6
			s7.7-16.2,7.7-16.2C253.6,213.2,250.7,214.9,247.6,216.9z"/>
	</g>
	<g>
		<path class="st0" d="M481.5,221.7v67.3h-17.4l-0.6-7.4c-4.1,5.7-10.2,8.7-17.6,8.7c-8.3,0-15.5-3.7-19.4-9.8
			c-4.4-7-5.7-14.8-5.7-33.3v-40.5c0-20.7,1.5-28.3,6.8-34.4c4.6-5.5,13.3-8.5,24.2-8.5c11.5,0,19.6,3,24,8.7
			c3.9,5,5.5,11.8,5.5,23.8v6.7h-19.4v-7.6c0-9.2-3-13.3-9.8-13.3c-8.5,0-10.2,4.4-10.2,27v34.7c0,22.7,2,28.1,10,28.1
			c3.7,0,6.8-1.8,8.3-5c1.3-3,1.7-5.5,1.7-13.9v-12.9h-9.6v-18.5H481.5z"/>
		<path class="st0" d="M551.9,288.9h-60.2c0.4-29.9,6.3-44.7,28.1-70.6c9.2-11.5,11.5-16.1,11.5-24c0-8.3-3.3-13.3-9.2-13.3
			c-3,0-5.7,1.5-7.2,3.9c-1.7,2.6-2,5.2-2,11.5v11.8h-20.7v-8.5c0-12.2,1.5-19,5.4-24.6c4.8-7.2,14-11.3,25.3-11.3
			c18.7,0,29.9,11.5,29.9,30.5c0,12.2-3,18.7-15.3,34.2c-16.6,20.5-21.3,28.5-23.5,41.4h38.1V288.9z"/>
		<path class="st0" d="M649.3,185.5h-35.8v31.2h33.8v17.9h-33.8v34.6h37.9v19.8h-59.1V165.7h57.1V185.5z"/>
		<path class="st0" d="M697,206.5v-7.2c0-12-3-17.2-9.6-17.2c-5.5,0-8.9,4.1-8.9,10.9s2.8,11.5,11.6,19l12.2,10.5
			c16.1,13.9,19.4,20.1,19.4,36.4c0,20.9-11.1,31.8-32.3,31.8c-21.4,0-31.4-10.7-31.4-33.8v-13.3h20.3v10c0,12.4,3.9,18.8,11.5,18.8
			c6.8,0,10.3-4.4,10.3-13.3c0-7.9-1.8-11.5-9.8-18.5l-11.6-10.2c-11.6-10-12.2-10.7-15.5-15.5c-3.5-5.7-5-11.3-5-20.3
			c0-20.5,10.2-30.9,29.8-30.9c9.4,0,17,2.6,22,7.6c5.2,5.2,7.4,12.8,7.4,24.8v10.3H697z"/>
		<path class="st0" d="M750.6,288.9h-21.3V165.7h30.1c13.5,0,19,1.3,23.3,5.2c5.5,5.2,7.8,13.9,7.8,29.6c0,25.9-6.8,34.4-27.5,34.4
			h-12.4V288.9z M757.8,216.9c8.5,0,11.1-3.9,11.1-16.4c0-7.8-1.1-12.6-3.5-15c-1.5-1.3-3.5-1.8-8.3-1.8h-6.5v33.3H757.8z"/>
		<path class="st0" d="M860,250.7c0,18.7-1.5,24.9-7,31.2c-5,5.7-13.5,8.9-23.8,8.9c-10.3,0-18.8-3.1-23.8-8.9
			c-5.5-6.3-7-12.6-7-31.2v-46.8c0-18.7,1.5-24.9,7-31.2c5-5.7,13.5-8.9,23.8-8.9c10.3,0,18.8,3.1,23.8,8.9c5.5,6.3,7,12.6,7,31.2
			V250.7z M819.5,250.3c0,18.5,2,23.3,9.6,23.3s9.6-4.8,9.6-23.3v-46c0-18.5-2-23.3-9.6-23.3s-9.6,4.8-9.6,23.3V250.3z"/>
		<path class="st0" d="M892.7,288.9h-21.3V165.7h29.2c12.9,0,19.2,1.3,23.5,5.2c5,4.4,7.4,13.5,7.4,28.3c0,17.9-2.4,22.4-14.4,25.1
			c10.5,1.8,13.7,6.5,13.7,21.3v17.7c0,15.7,0.4,20.1,2,25.7h-22.4c-0.7-4.6-0.9-6.7-0.9-15.5v-22.5c0-13.5-3-17.9-12-17.9h-4.8
			V288.9z M898.8,215.8c9.6,0,12.4-3.9,12.4-16.4c0-13.1-2.4-16.4-12-16.4h-6.5v32.9H898.8z"/>
		<path class="st0" d="M980.1,288.9h-21.3V184.7h-21.4v-19h64.1v19h-21.4V288.9z"/>
		<path class="st0" d="M1045.1,206.5v-7.2c0-12-3-17.2-9.6-17.2c-5.5,0-8.9,4.1-8.9,10.9s2.8,11.5,11.6,19l12.2,10.5
			c16.1,13.9,19.4,20.1,19.4,36.4c0,20.9-11.1,31.8-32.3,31.8c-21.4,0-31.4-10.7-31.4-33.8v-13.3h20.3v10c0,12.4,3.9,18.8,11.5,18.8
			c6.8,0,10.3-4.4,10.3-13.3c0-7.9-1.8-11.5-9.8-18.5l-11.6-10.2c-11.6-10-12.2-10.7-15.5-15.5c-3.5-5.7-5-11.3-5-20.3
			c0-20.5,10.2-30.9,29.8-30.9c9.4,0,17,2.6,22,7.6c5.2,5.2,7.4,12.8,7.4,24.8v10.3H1045.1z"/>
	</g>
</g>
</svg>
